/* XPM */
static char * folder_open_xpm[] = {
"16 16 2 1",
" 	c None",
".	c #000000",
"                ",
"                ",
"                ",
".......         ",
"........        ",
".............   ",
".............   ",
"...             ",
".. .............",
". ............. ",
". ............. ",
" .............  ",
" .............  ",
"                ",
"                ",
"                "};
