#define folder_open_width 16
#define folder_open_height 16
static unsigned char folder_open_bits[] = {
   0x00, 0x00, 0x00, 0x00, 0x00, 0x00, 0x7f, 0x00, 0xff, 0x00, 0xff, 0x1f,
   0xff, 0x1f, 0x07, 0x00, 0xfb, 0xff, 0xfd, 0x7f, 0xfd, 0x7f, 0xfe, 0x3f,
   0xfe, 0x3f, 0x00, 0x00, 0x00, 0x00, 0x00, 0x00 };
