#define info_circle_width 16
#define info_circle_height 16
static unsigned char info_circle_bits[] = {
   0xc0, 0x03, 0xf0, 0x0f, 0xf8, 0x1f, 0xfc, 0x3f, 0x7e, 0x7e, 0x7e, 0x7e,
   0xff, 0xff, 0x3f, 0xfe, 0x7f, 0xfe, 0x7f, 0xfe, 0x7e, 0x7e, 0x3e, 0x7c,
   0xfc, 0x3f, 0xf8, 0x1f, 0xf0, 0x0f, 0xc0, 0x03 };
