#define pause_width 16
#define pause_height 16
static unsigned char pause_bits[] = {
   0x00, 0x00, 0x3c, 0x3c, 0x7e, 0x7e, 0x7e, 0x7e, 0x7e, 0x7e, 0x7e, 0x7e,
   0x7e, 0x7e, 0x7e, 0x7e, 0x7e, 0x7e, 0x7e, 0x7e, 0x7e, 0x7e, 0x7e, 0x7e,
   0x7e, 0x7e, 0x7e, 0x7e, 0x3c, 0x3c, 0x00, 0x00 };
