#define power_off_width 16
#define power_off_height 16
static unsigned char power_off_bits[] = {
   0x80, 0x01, 0x80, 0x01, 0x98, 0x19, 0x9c, 0x39, 0x8e, 0x71, 0x86, 0x61,
   0x87, 0xe1, 0x83, 0xc1, 0x83, 0xc1, 0x07, 0xe0, 0x06, 0x60, 0x0e, 0x70,
   0x1c, 0x38, 0x78, 0x1e, 0xf0, 0x0f, 0xc0, 0x03 };
