#define question_circle_width 16
#define question_circle_height 16
static unsigned char question_circle_bits[] = {
   0xc0, 0x03, 0xf0, 0x0f, 0xf8, 0x1f, 0x3c, 0x3c, 0x1e, 0x78, 0x9e, 0x71,
   0xff, 0xf1, 0xff, 0xf8, 0x7f, 0xfc, 0x7f, 0xfe, 0xfe, 0x7f, 0x7e, 0x7e,
   0x7c, 0x3e, 0xf8, 0x1f, 0xf0, 0x0f, 0xc0, 0x03 };
