#define question_width 16
#define question_height 16
static unsigned char question_bits[] = {
   0xc0, 0x07, 0xf0, 0x0f, 0xf8, 0x1f, 0x78, 0x3e, 0x30, 0x3c, 0x00, 0x3c,
   0x00, 0x1f, 0x80, 0x1f, 0xc0, 0x07, 0xc0, 0x03, 0x80, 0x01, 0x00, 0x00,
   0xc0, 0x03, 0xc0, 0x03, 0xc0, 0x03, 0x80, 0x01 };
