#define save_width 16
#define save_height 16
static unsigned char save_bits[] = {
   0x00, 0x00, 0xfe, 0x0f, 0xfe, 0x1f, 0x06, 0x38, 0x06, 0x78, 0x06, 0x78,
   0x06, 0x78, 0xfe, 0x7f, 0xfe, 0x7f, 0x7e, 0x7e, 0x3e, 0x7c, 0x3e, 0x7c,
   0x7e, 0x7e, 0xfe, 0x7f, 0xfe, 0x7f, 0x00, 0x00 };
