#define sync_width 16
#define sync_height 16
static unsigned char sync_bits[] = {
   0xc0, 0xc3, 0xf0, 0xcf, 0xf8, 0xff, 0x1c, 0xf8, 0x0e, 0xf0, 0x06, 0xfe,
   0x07, 0xfe, 0x00, 0x00, 0x00, 0x00, 0x7f, 0xe0, 0x7f, 0x60, 0x0f, 0x70,
   0x1f, 0x38, 0xff, 0x1f, 0xf3, 0x0f, 0xc3, 0x03 };
