/* XPM */
static char * xcpc_mask_xpm[] = {
"64 64 3 1",
" 	c #000000",
".	c #000000",
"+	c #FFFFFF",
"++++++++++++++++++++++++++++++++++++++++++++++++++++++++++++++++",
"++++++++++++++++++++++++++++++++++++++++++++++++++++++++++++++++",
"++++++++++++++++++++++++++++++++++++++++++++++++++++++++++++++++",
"++++++++++++++++++++++++++++++++++++++++++++++++++++++++++++++++",
"++++++++++++++++++++++++++++++++++++++++++++++++++++++++++++++++",
"++++++++++++++++++++++++++++++++++++++++++++++++++++++++++++++++",
"++++++++++++++++++++++++++++++++++++++++++++++++++++++++++++++++",
"+++++++++++++++++++++++++              +++++++++++++++++++++++++",
"+++++++++++++++++++++                      +++++++++++++++++++++",
"+++++++++++++++++++                          +++++++++++++++++++",
"+++++++++++++++++                              +++++++++++++++++",
"++++++++++++++++                                 +++++++++++++++",
"++++++++++++++                                    ++++++++++++++",
"+++++++++++++                                       ++++++++++++",
"++++++++++++                                         +++++++++++",
"+++++++++++                                           ++++++++++",
"++++++++++                                             +++++++++",
"+++++++++                                              +++++++++",
"++++++++                                                ++++++++",
"+++++++                                                  +++++++",
"+++++++                                                  +++++++",
"++++++                                                    ++++++",
"++++++                                                     ++  +",
"+++++                                                          +",
"+++++                                                          +",
"+++++                                                          +",
"++++                                                           +",
"++++                                                           +",
"++++                                                           +",
"++++                                                          ++",
"++++                                                         +++",
"++++                                                         +++",
"++++                                                         +++",
"++++                                                         +++",
"+++                                                         ++++",
"+++                                                         ++++",
"++                                                          ++++",
"++                                                          ++++",
"+                                                           ++++",
"+                                                          +++++",
"++                                                         +++++",
"++                                                        ++++++",
"++                                                        ++++++",
"++                                                       +++++++",
"++                                                       +++++++",
"+++                                                     ++++++++",
"++++                                                   +++++++++",
"++++                                                   +++++++++",
"+++++                                                 ++++++++++",
"+++++                                                +++++++++++",
"++++++                                              ++++++++++++",
"+++++++                                             ++++++++++++",
"+++++++                                             ++++++++++++",
"++++++++                                            ++++++++++++",
"+++++++++                                           ++++++++++++",
"++++++++++                                          ++++++++++++",
"++++++++++ ++                                       ++++++++++++",
"+++++++++++++                                       ++++++++++++",
"+++++++++++++                                      +++++++++++++",
"++++++++++++++++++++++++++++++++++++++++++++++++++++++++++++++++",
"++++++++++++++++++++++++++++++++++++++++++++++++++++++++++++++++",
"++++++++++++++++++++++++++++++++++++++++++++++++++++++++++++++++",
"++++++++++++++++++++++++++++++++++++++++++++++++++++++++++++++++",
"++++++++++++++++++++++++++++++++++++++++++++++++++++++++++++++++"};
