/* XPM */
static char * xcpc_xpm[] = {
"48 48 17 1",
" 	c None",
".	c #08110D",
"+	c #111726",
"@	c #0A1D5E",
"#	c #212E27",
"$	c #612347",
"%	c #214986",
"&	c #802D2B",
"*	c #404F46",
"=	c #3D5569",
"-	c #525921",
";	c #4082AB",
">	c #6C8492",
",	c #808676",
"'	c #8D9560",
")	c #BCA33A",
"!	c #C5BBA2",
"                                                ",
"                                                ",
"                                                ",
"                                                ",
"                                                ",
"                                                ",
"                                                ",
"        !!'''''''''''''',,,,,,,,,,,>            ",
"        >=*>>,,>>,>>,,,,,,,,,,,,,',,*           ",
"        #.......#....##.#............           ",
"        *......#..############.#.....           ",
"        *........................#.##           ",
"        *..........+...+.++.++.....##           ",
"        *.....$+',,''=*,,,,',,+.....#           ",
"        *......@')))))))))))),+#-.###           ",
"        *...--+@-&$$$$$$$$$&&*+#-..##           ",
"        *...-=;@$$%=>@%@%=;@@@%>-#..#           ",
"        *...-'==&-+@@%=%@@+@+=;,-..##           ",
"        *...#===--+@=%%@;@@@@+;>*..##           ",
"        *...-'%*+@+@@=@@%@@+++='-..##           ",
"        *...#>==+@@@@%@@@@@@@+>=+....           ",
"        *...#';;%==%@@>%@@@@++,--....           ",
"        *...#==>%>,=@=!=%%%@++>==....           ",
"        *...#'*,;>>@@%>@@@@@@@;,-....           ",
"        >...#%+,',>;%;%%@@@@@@@%%-...           ",
"        ,...**>;>;%>;;;;;%%@@@@;*#...           ",
"        ,..+@#**>;;>;>,,;>>;%%+*++...           ",
"        ,............................           ",
"        ,.............#......+.......           ",
"        *....####=#=*=*=*#***######..           ",
"        ,.....+.....+.....+..+.......           ",
"  *##****#######+################++##*******#   ",
"  ##>=,>>>*>>>>>,>>>>>>>>>>>!,!,,,*##**,******  ",
"  #*!!!!!!!!!!!!!!!!!!!!!!!!!!!!!!>###*****=**  ",
" *#*!!!!!!!!!!!!!!!!!!!!!!!!!!!!!!,#*#********* ",
" **,!!!!!!!!!!!!!!!!!!!!!!!!!!!!!!!**#*****=*=* ",
" ##,,,',,,,!,!!!!,!!'!',,,,'',,',-,#=#######...#",
" ###**************************#**#*#*#..*,,*-*##",
"*.....................................+........*",
"*..+...........+...............................*",
"                                                ",
"                                                ",
"                                                ",
"                                                ",
"                                                ",
"                                                ",
"                                                ",
"                                                "};
